# xmcd
#
# Track frame offsets:
#	183
#	13053
#	28560
#	40655
#	54483
#	68223
#	79753
#	92635
#	103205
#	113270
#	126613
#	138458
#	158218
#	173348
#	185165
#	199175
#	212338
#	223863
#	234723
#	249330
#
# Disc length: 3511 seconds
#
# Revision: 1
# Processed by: cddbd v1.5.2PL0 Copyright (c) Steve Scherf et al.
# Submitted via: audiograbber 1.83.01
#
DISCID=160db514
DTITLE=Compilation - Originals Blues vol.2
DYEAR=1900
DGENRE=Blues
TTITLE0=Muddy Waters (Dixon) - (I'm your)Hoochie coochie Man
TTITLE1=BB King (Ling/King) - Walkin' and Cryin'
TTITLE2=Howlin' Wolf (Dixon) - Spoonful
TTITLE3=Little Walter (Jacobs) - Blues with a feeling
TTITLE4=Elmore James (James) - It hurts me too
TTITLE5=Muddy Waters (Morganfield) - Sittin' here Drinkin'
TTITLE6=Sonny Boy Williamson (Williamson) - Work With Me
TTITLE7=Howlin' Wolf (Burnett) - Who's been talking
TTITLE8=John Lee Hooker (Hooker) - Dimples
TTITLE9=Lightning Hopkins (Hopkiins/Lewis/Robinson) - Mojo Hand
TTITLE10=Muddy Waters (Waters) - Long Distance Call
TTITLE11=BB King (King/Bihri) - Sweet Sixteen
TTITLE12=Howlin' Wolf (Oden) - Goin' Down Slow
TTITLE13=John Lee Hooker (Hooker) - Whiskey and Wimmen
TTITLE14=Little Walter (Unknown) - Sad Hours
TTITLE15=Muddy Waters (Waters) - She Moves Me
TTITLE16=Howlin Wolf (Dixon) - Howlin' for my Baby
TTITLE17=Elmore James (James) - Coming Home
TTITLE18=BB King (Unknow) - How Blue you Can get
TTITLE19=Muddy Waters (Morganfield) - Rollin' Stone
EXTD=
EXTT0=
EXTT1=
EXTT2=
EXTT3=
EXTT4=
EXTT5=
EXTT6=
EXTT7=
EXTT8=
EXTT9=
EXTT10=
EXTT11=
EXTT12=
EXTT13=
EXTT14=
EXTT15=
EXTT16=
EXTT17=
EXTT18=
EXTT19=
PLAYORDER=
